Coordinates
version=1
nRows=15
nColumns=42
inDegrees=yes

Units are S.I. units (second, meters, Newtons, ...)
If the header above contains a line with 'inDegrees', this indicates whether rotational values are in degrees (yes) or radians (no).

endheader
time	pelvis_tilt	pelvis_list	pelvis_rotation	pelvis_tx	pelvis_ty	pelvis_tz	hip_flexion_r	hip_adduction_r	hip_rotation_r	knee_angle_r	knee_angle_r_beta	ankle_angle_r	subtalar_angle_r	mtp_angle_r	hip_flexion_l	hip_adduction_l	hip_rotation_l	knee_angle_l	knee_angle_l_beta	ankle_angle_l	subtalar_angle_l	mtp_angle_l	lumbar_extension	lumbar_bending	lumbar_rotation	sh_tx_r	sh_ty_r	sh_tz_r	sh_plane_elev_r	sh_elev_r	sh_axial_rot_r	elbow_flex_r	pro_sup_r	sh_tx_l	sh_ty_l	sh_tz_l	sh_plane_elev_l	sh_elev_l	sh_axial_rot_l	elbow_flex_l	pro_sup_l
      0.00000000	     -3.63992332	     -1.77122981	     -0.97292669	      0.29027671	      0.93518023	     -0.04271214	      1.15919414	     -3.23127423	     -2.87964645	      3.64366145	      0.06359389	     -2.94258304	    -12.77359984	     -4.68546082	      2.58114646	     -4.37385466	     -7.06802909	      5.68043476	      0.09914229	     11.33403232	     -4.32436481	     -4.68546082	     -2.55409905	      1.32355161	     -1.31010704	     -0.00682806	     -0.01853840	     -0.00599336	      9.84860022	      3.81006257	      0.30261134	     24.71667008	     77.03678875	     -0.01217960	     -0.01745455	     -0.00414348	     11.57893921	      5.91255478	     -0.77215605	     19.57676290	     70.57119014
      0.01694910	     -5.51587647	     -1.52689098	     -1.00957555	      0.29229296	      0.93239995	     -0.04345104	      3.24936943	     -3.43667290	     -2.98135852	      3.98716436	      0.06958915	      0.49244071	     -9.27591989	     -5.16190887	      4.62890557	     -3.75507116	     -8.20037153	      4.93913912	      0.08620424	     11.15632123	     -2.40439094	     -5.16190887	      0.21217861	      1.15265538	     -1.43156683	     -0.01152567	     -0.01840406	     -0.00633966	      6.44358207	      2.65281032	     -1.57832323	     23.56920081	     76.03420835	     -0.01392398	     -0.01722592	     -0.00467697	      6.84778121	      4.49361556	     -3.61584638	     19.29435575	     70.33897865
      0.03389830	     -6.04783727	     -0.82411740	     -0.99054909	      0.29238056	      0.92929841	     -0.04263988	      3.56673894	     -4.31667008	     -3.48646302	      3.34228434	      0.05833387	      1.13901199	     -8.64977673	     -6.49876652	      4.91138162	     -3.03150527	     -9.45245606	      4.33350696	      0.07563396	     11.02307723	     -0.82060219	     -6.49876652	      0.84094328	      0.06273789	     -2.08053424	     -0.01173459	     -0.01837454	     -0.00646480	      2.45090964	      1.87452831	     -0.09008884	     24.02034100	     78.48654459	     -0.01742916	     -0.01730988	     -0.00463381	     -0.65978540	      4.22094475	     -0.90050923	     19.53664455	     76.79542459
      0.05084750	     -5.78119037	     -0.40634214	     -0.86168888	      0.29253596	      0.93088486	     -0.04287719	      3.06309439	     -4.86975831	     -3.71360938	      2.87736759	      0.05021954	      1.92309126	     -7.78025218	     -6.75524116	      3.99437309	     -2.47763810	     -9.86117007	      3.21210861	      0.05606187	     10.59952300	     -0.17993930	     -6.75524116	      0.73646445	     -0.68877542	     -1.97720322	     -0.01276756	     -0.01845317	     -0.00644889	      3.23682723	      1.76106149	      0.18273137	     23.91651297	     75.92904941	     -0.01834610	     -0.01731935	     -0.00446117	      0.25912167	      4.61478133	     -0.50275078	     19.16296181	     74.76782676
      0.06779660	     -5.43155612	     -0.27463659	     -0.79943411	      0.29243104	      0.93460636	     -0.04302585	      2.42650759	     -5.00432485	     -3.88912247	      2.37118612	      0.04138500	      2.07725444	     -7.41636207	     -6.85933560	      3.18157848	     -2.24415166	     -9.86288024	      2.39013464	      0.04171572	     10.28395807	      0.19112914	     -6.85933560	      0.27125696	     -0.90424748	     -2.27760791	     -0.01148153	     -0.01846849	     -0.00627309	      4.14868331	      1.77092489	      0.10068837	     24.15396568	     75.05161931	     -0.01997297	     -0.01739052	     -0.00426792	      0.73407724	      4.77025303	     -0.80914582	     19.72207615	     73.90791426
      0.08474580	     -5.12211716	     -0.13331275	     -0.84613538	      0.29244523	      0.93519770	     -0.04307389	      1.95257630	     -5.11483774	     -3.93752476	      2.04706219	      0.03572798	      2.32636497	     -7.04405847	     -6.96276196	      2.60251201	     -2.03242675	     -9.97043863	      1.95271728	      0.03408135	     10.12968364	      0.49142058	     -6.96276196	      0.14692220	     -1.08618739	     -2.34308265	     -0.00974454	     -0.01849272	     -0.00616542	      5.31024493	      1.81200333	      0.53262950	     24.16830414	     73.77559953	     -0.01957645	     -0.01742337	     -0.00414170	      1.48592986	      4.82628132	     -0.58444774	     19.62159027	     72.75043414
      0.10169490	     -4.89789864	     -0.01911347	     -0.76064910	      0.29621065	      0.93522745	     -0.04742682	      1.47394938	     -5.34497551	     -4.09268318	      1.79854675	      0.03139056	      2.29829205	     -6.91281554	     -6.96936849	      2.12296896	     -1.77649289	     -9.88579283	      1.62704432	      0.02839728	      9.83904765	      0.67455630	     -6.96936849	      0.15542394	     -1.13191085	     -2.26690367	     -0.00961274	     -0.01847920	     -0.00592890	      5.44443472	      1.86056965	      0.68028027	     24.00581539	     73.89371792	     -0.01878440	     -0.01747590	     -0.00410233	      1.39385652	      4.60195851	     -0.71561315	     19.75533940	     72.73509365
      0.11864410	     -4.57965922	      0.02588303	     -0.76567371	      0.29215769	      0.93571404	     -0.04279176	      1.04474362	     -5.33812824	     -4.15987177	      1.62182934	      0.02830626	      2.51886804	     -6.62324500	     -7.09246378	      1.69361029	     -1.70805668	     -9.80542530	      1.45718771	      0.02543272	      9.81297260	      0.65016360	     -7.09246378	     -0.14074185	     -1.21922525	     -2.36680916	     -0.00811078	     -0.01846649	     -0.00587351	      7.17265429	      1.95585978	      0.37997886	     24.02259634	     72.34215940	     -0.01754717	     -0.01746339	     -0.00399927	      1.78315523	      4.73145583	     -1.34746963	     20.32467259	     70.90445501
      0.13559320	     -4.49448807	      0.10732862	     -0.70019384	      0.29589759	      0.93557271	     -0.04715331	      0.83820240	     -5.48445318	     -4.16562286	      1.49085043	      0.02602025	      2.47494482	     -6.57228213	     -7.09470598	      1.49714771	     -1.56037342	     -9.82326335	      1.33310000	      0.02326698	      9.63072413	      0.76211291	     -7.09470598	     -0.04653594	     -1.23377815	     -2.40287923	     -0.00789971	     -0.01844045	     -0.00570642	      7.20271415	      2.02605392	      0.44862179	     23.91548856	     72.42098571	     -0.01690697	     -0.01748372	     -0.00397096	      1.73451743	      4.62692626	     -1.37730621	     20.43962088	     70.91534834
      0.15254240	     -4.08133088	      0.14318128	     -0.66708820	      0.29586918	      0.93611546	     -0.04715675	      0.22164080	     -5.54060784	     -4.40570616	      1.35383545	      0.02362889	      2.55821157	     -6.12073526	     -7.23955287	      0.90518956	     -1.46887297	     -9.82736077	      1.16994916	      0.02041946	      9.58529165	      0.90634414	     -7.23955287	     -0.43626240	     -1.24115098	     -2.76544120	     -0.00658695	     -0.01839040	     -0.00562613	      7.76900955	      2.10301146	      0.60645743	     24.00307591	     72.35998407	     -0.01707086	     -0.01742347	     -0.00399235	      1.16962072	      4.59595495	     -1.86438272	     20.86838960	     69.78404650
      0.16949150	     -4.02947322	      0.16949227	     -0.65218579	      0.29578188	      0.93602705	     -0.04678478	      0.08150360	     -5.56547311	     -4.58571426	      1.32373404	      0.02310352	      2.67137348	     -5.73665398	     -7.31439603	      0.77428172	     -1.42023073	    -10.01268481	      1.10377837	      0.01926457	      9.52890761	      1.28502379	     -7.31439603	     -0.25602388	     -1.25305791	     -2.53872934	     -0.00710919	     -0.01837057	     -0.00552012	      8.57653124	      2.26483120	      0.93095788	     23.65278503	     71.26760710	     -0.01563978	     -0.01738225	     -0.00396504	      1.78844525	      4.59973524	     -1.76394769	     20.58854553	     68.71213314
      0.18644070	     -3.99692549	      0.18559995	     -0.61562849	      0.29497867	      0.93591439	     -0.04688813	      0.29755122	     -5.60195637	     -4.70296454	      1.85486158	      0.03237344	      2.93149778	     -5.75699332	     -7.33348664	      0.99785524	     -1.44253891	    -10.06691939	      1.62405187	      0.02834505	      9.66726209	      1.25193018	     -7.33348664	     -0.52455903	     -1.29553410	     -2.54628342	     -0.00753089	     -0.01664361	     -0.00542710	      9.49162403	      2.78735093	      0.64610798	     24.36721731	     71.05617113	     -0.01474768	     -0.01506363	     -0.00468448	      2.52446828	      5.01427389	     -1.86804100	     21.04723453	     68.39355951
      0.20338980	     -3.83406336	      0.17704585	     -0.56560732	      0.29573610	      0.93614058	     -0.04652558	     -0.31333354	     -5.53219087	     -4.75500433	      1.19466584	      0.02085085	      2.68408104	     -5.56064062	     -7.40436068	      0.44271966	     -1.40344554	     -9.99942872	      0.95721131	      0.01670649	      9.26849882	      1.39566832	     -7.40436068	     -0.40664008	     -1.18341018	     -3.26677102	     -0.00476906	     -0.01827190	     -0.00549965	      6.12853615	      2.26668994	      1.05159131	     24.29118066	     77.89641977	     -0.01679151	     -0.01729278	     -0.00398780	     -1.57402951	      4.46351231	     -1.25842314	     21.18512042	     71.87200804
      0.22033900	     -3.80936557	      0.13216397	     -0.53681830	      0.29501778	      0.93611537	     -0.04661111	      0.00492674	     -5.51880618	     -5.05353914	      1.85883378	      0.03244277	      3.02874221	     -5.33081500	     -7.41928487	      0.69135411	     -1.52495487	    -10.13041556	      1.48440169	      0.02590770	      9.38089633	      1.48381841	     -7.41928487	     -0.58398917	     -1.22941969	     -2.70178026	     -0.00681614	     -0.01649874	     -0.00543023	      7.56468860	      2.82373708	      0.96603956	     24.75535555	     76.27393783	     -0.01429268	     -0.01497902	     -0.00466888	     -0.07252277	      4.86251961	     -1.13707285	     21.44421416	     70.99841059
      0.23728810	     -3.76185219	      0.08675497	     -0.51173611	      0.29583703	      0.93624246	     -0.04625719	     -0.32899809	     -5.44188877	     -5.23422089	      1.38335683	      0.02414413	      2.77914410	     -5.02877228	     -7.43925156	      0.30245208	     -1.54841351	    -10.25694808	      0.87026211	      0.01518894	      9.14199796	      1.97394405	     -7.43925156	     -0.31138082	     -1.14078882	     -3.06027952	     -0.00571343	     -0.01814713	     -0.00533588	      7.59631206	      2.53995186	      0.46720319	     24.29366994	     74.31610853	     -0.01519360	     -0.01712877	     -0.00403144	      0.68137870	      4.86743059	     -1.62469849	     20.99721541	     69.71388367
